<svg xmlns="http://www.w3.org/2000/svg" viewBox="0 0 800 500" role="img" aria-label="Yengil konstruksiya, qo'shimcha mahkamlagichlarsiz"><defs>
<linearGradient id="bg" x1="0" y1="0" x2="1" y2="1"><stop offset="0" stop-color="#123d2c"/><stop offset=".55" stop-color="#0b271c"/><stop offset="1" stop-color="#071a13"/></linearGradient>
<radialGradient id="beam" cx=".72" cy="-.1" r=".9"><stop offset="0" stop-color="#5fe3a1" stop-opacity=".35"/><stop offset=".5" stop-color="#2cc3b3" stop-opacity=".06"/><stop offset="1" stop-color="#2cc3b3" stop-opacity="0"/></radialGradient>
<radialGradient id="floor"><stop offset="0" stop-color="#3ddc84" stop-opacity=".16"/><stop offset="1" stop-color="#3ddc84" stop-opacity="0"/></radialGradient>
<linearGradient id="cyl" x1="0" x2="1"><stop offset="0" stop-color="#0d100f"/><stop offset=".35" stop-color="#3c4644"/><stop offset=".6" stop-color="#1d2322"/><stop offset="1" stop-color="#0a0c0b"/></linearGradient>
<linearGradient id="tileTop" x1="0" y1="0" x2="1" y2="1"><stop offset="0" stop-color="#f4f7f5"/><stop offset="1" stop-color="#d9e2dd"/></linearGradient>
<linearGradient id="water" x1="0" x2="1"><stop offset="0" stop-color="#5fd0ff"/><stop offset="1" stop-color="#2c8cff"/></linearGradient>
<linearGradient id="warm" x1="0" x2="1"><stop offset="0" stop-color="#ffb35c"/><stop offset="1" stop-color="#ff6b3d"/></linearGradient>
<linearGradient id="cool" x1="0" x2="1"><stop offset="0" stop-color="#2cc3b3"/><stop offset="1" stop-color="#5fe3a1"/></linearGradient>
<filter id="blur" x="-50%" y="-50%" width="200%" height="200%"><feGaussianBlur stdDeviation="6"/></filter>
<filter id="glow" x="-50%" y="-50%" width="200%" height="200%"><feGaussianBlur stdDeviation="4" result="b"/><feMerge><feMergeNode in="b"/><feMergeNode in="SourceGraphic"/></feMerge></filter>
</defs><rect width="800" height="500" fill="url(#bg)"/><rect width="800" height="500" fill="url(#beam)"/><ellipse cx="400.0" cy="332.4" rx="330" ry="150" fill="url(#floor)"/><line x1="379.2" y1="42.0" x2="-119.6" y2="330.0" stroke="#2cc3b3" stroke-opacity=".07"/><line x1="420.8" y1="42.0" x2="919.6" y2="330.0" stroke="#2cc3b3" stroke-opacity=".07"/><line x1="431.2" y1="72.0" x2="-67.7" y2="360.0" stroke="#2cc3b3" stroke-opacity=".07"/><line x1="368.8" y1="72.0" x2="867.7" y2="360.0" stroke="#2cc3b3" stroke-opacity=".07"/><line x1="483.1" y1="102.0" x2="-15.7" y2="390.0" stroke="#2cc3b3" stroke-opacity=".07"/><line x1="316.9" y1="102.0" x2="815.7" y2="390.0" stroke="#2cc3b3" stroke-opacity=".07"/><line x1="535.1" y1="132.0" x2="36.3" y2="420.0" stroke="#2cc3b3" stroke-opacity=".07"/><line x1="264.9" y1="132.0" x2="763.7" y2="420.0" stroke="#2cc3b3" stroke-opacity=".07"/><line x1="587.1" y1="162.0" x2="88.2" y2="450.0" stroke="#2cc3b3" stroke-opacity=".07"/><line x1="212.9" y1="162.0" x2="711.8" y2="450.0" stroke="#2cc3b3" stroke-opacity=".07"/><line x1="639.0" y1="192.0" x2="140.2" y2="480.0" stroke="#2cc3b3" stroke-opacity=".07"/><line x1="161.0" y1="192.0" x2="659.8" y2="480.0" stroke="#2cc3b3" stroke-opacity=".07"/><line x1="691.0" y1="222.0" x2="192.2" y2="510.0" stroke="#2cc3b3" stroke-opacity=".07"/><line x1="109.0" y1="222.0" x2="607.8" y2="510.0" stroke="#2cc3b3" stroke-opacity=".07"/><line x1="742.9" y1="252.0" x2="244.1" y2="540.0" stroke="#2cc3b3" stroke-opacity=".07"/><line x1="57.1" y1="252.0" x2="555.9" y2="540.0" stroke="#2cc3b3" stroke-opacity=".07"/><line x1="794.9" y1="282.0" x2="296.1" y2="570.0" stroke="#2cc3b3" stroke-opacity=".07"/><line x1="5.1" y1="282.0" x2="503.9" y2="570.0" stroke="#2cc3b3" stroke-opacity=".07"/><ellipse cx="400.0" cy="225.0" rx="40.6" ry="23.4" fill="#000" opacity=".35" filter="url(#blur)"/><path d="M369.1,222.0 A30.9,17.8 0 0 0 430.9,222.0 L430.9,218.4 A30.9,17.8 0 0 1 369.1,218.4 Z" fill="url(#cyl)"/><ellipse cx="400.0" cy="218.4" rx="30.9" ry="17.8" fill="#262c2a"/><path d="M369.1,222.0 A30.9,17.8 0 0 0 430.9,222.0" fill="none" stroke="#2cc3b3" stroke-width="1"/><path d="M373.5,218.4 A26.5,15.3 0 0 0 426.5,218.4 L413.2,193.2 A13.2,7.6 0 0 1 386.8,193.2 Z" fill="url(#cyl)"/><line x1="422.9" y1="226.0" x2="411.5" y2="197.0" stroke="#4b5552" stroke-width="1.4"/><line x1="413.2" y1="231.6" x2="406.6" y2="199.8" stroke="#4b5552" stroke-width="1.4"/><line x1="400.0" y1="233.7" x2="400.0" y2="200.8" stroke="#4b5552" stroke-width="1.4"/><line x1="386.8" y1="231.6" x2="393.4" y2="199.8" stroke="#4b5552" stroke-width="1.4"/><line x1="377.1" y1="226.0" x2="388.5" y2="197.0" stroke="#4b5552" stroke-width="1.4"/><path d="M387.5,193.2 A12.5,7.2 0 0 0 412.5,193.2 L412.5,138.0 A12.5,7.2 0 0 1 387.5,138.0 Z" fill="url(#cyl)"/><path d="M387.5,189.6 A12.5,7.2 0 0 0 412.5,189.6" fill="none" stroke="#56615d" stroke-width="1"/><path d="M387.5,185.8 A12.5,7.2 0 0 0 412.5,185.8" fill="none" stroke="#56615d" stroke-width="1"/><path d="M387.5,181.9 A12.5,7.2 0 0 0 412.5,181.9" fill="none" stroke="#56615d" stroke-width="1"/><path d="M387.5,178.1 A12.5,7.2 0 0 0 412.5,178.1" fill="none" stroke="#56615d" stroke-width="1"/><path d="M387.5,174.2 A12.5,7.2 0 0 0 412.5,174.2" fill="none" stroke="#56615d" stroke-width="1"/><path d="M387.5,170.4 A12.5,7.2 0 0 0 412.5,170.4" fill="none" stroke="#56615d" stroke-width="1"/><path d="M387.5,166.6 A12.5,7.2 0 0 0 412.5,166.6" fill="none" stroke="#56615d" stroke-width="1"/><path d="M387.5,162.7 A12.5,7.2 0 0 0 412.5,162.7" fill="none" stroke="#56615d" stroke-width="1"/><path d="M387.5,158.9 A12.5,7.2 0 0 0 412.5,158.9" fill="none" stroke="#56615d" stroke-width="1"/><path d="M387.5,155.0 A12.5,7.2 0 0 0 412.5,155.0" fill="none" stroke="#56615d" stroke-width="1"/><path d="M387.5,151.2 A12.5,7.2 0 0 0 412.5,151.2" fill="none" stroke="#56615d" stroke-width="1"/><path d="M387.5,147.4 A12.5,7.2 0 0 0 412.5,147.4" fill="none" stroke="#56615d" stroke-width="1"/><path d="M387.5,143.5 A12.5,7.2 0 0 0 412.5,143.5" fill="none" stroke="#56615d" stroke-width="1"/><path d="M387.5,139.7 A12.5,7.2 0 0 0 412.5,139.7" fill="none" stroke="#56615d" stroke-width="1"/><path d="M385.3,138.0 A14.7,8.5 0 0 0 414.7,138.0 L422.0,133.2 A22.0,12.7 0 0 1 378.0,133.2 Z" fill="url(#cyl)"/><path d="M378.0,133.2 A22.0,12.7 0 0 0 422.0,133.2 L422.0,130.8 A22.0,12.7 0 0 1 378.0,130.8 Z" fill="#2a312f"/><ellipse cx="400.0" cy="130.8" rx="22.0" ry="12.7" fill="#1c2120"/><path d="M378.0,133.2 A22.0,12.7 0 0 0 422.0,133.2" fill="none" stroke="#2cc3b3" stroke-width="1"/><ellipse cx="302.8" cy="281.1" rx="40.6" ry="23.4" fill="#000" opacity=".35" filter="url(#blur)"/><path d="M272.0,278.1 A30.9,17.8 0 0 0 333.7,278.1 L333.7,274.5 A30.9,17.8 0 0 1 272.0,274.5 Z" fill="url(#cyl)"/><ellipse cx="302.8" cy="274.5" rx="30.9" ry="17.8" fill="#262c2a"/><path d="M272.0,278.1 A30.9,17.8 0 0 0 333.7,278.1" fill="none" stroke="#2cc3b3" stroke-width="1"/><path d="M276.4,274.5 A26.5,15.3 0 0 0 329.3,274.5 L316.1,249.3 A13.2,7.6 0 0 1 289.6,249.3 Z" fill="url(#cyl)"/><line x1="325.7" y1="282.1" x2="314.3" y2="253.1" stroke="#4b5552" stroke-width="1.4"/><line x1="316.1" y1="287.7" x2="309.4" y2="255.9" stroke="#4b5552" stroke-width="1.4"/><line x1="302.8" y1="289.8" x2="302.8" y2="256.9" stroke="#4b5552" stroke-width="1.4"/><line x1="289.6" y1="287.7" x2="296.2" y2="255.9" stroke="#4b5552" stroke-width="1.4"/><line x1="279.9" y1="282.1" x2="291.4" y2="253.1" stroke="#4b5552" stroke-width="1.4"/><path d="M290.3,249.3 A12.5,7.2 0 0 0 315.3,249.3 L315.3,194.1 A12.5,7.2 0 0 1 290.3,194.1 Z" fill="url(#cyl)"/><path d="M290.3,245.7 A12.5,7.2 0 0 0 315.3,245.7" fill="none" stroke="#56615d" stroke-width="1"/><path d="M290.3,241.9 A12.5,7.2 0 0 0 315.3,241.9" fill="none" stroke="#56615d" stroke-width="1"/><path d="M290.3,238.0 A12.5,7.2 0 0 0 315.3,238.0" fill="none" stroke="#56615d" stroke-width="1"/><path d="M290.3,234.2 A12.5,7.2 0 0 0 315.3,234.2" fill="none" stroke="#56615d" stroke-width="1"/><path d="M290.3,230.3 A12.5,7.2 0 0 0 315.3,230.3" fill="none" stroke="#56615d" stroke-width="1"/><path d="M290.3,226.5 A12.5,7.2 0 0 0 315.3,226.5" fill="none" stroke="#56615d" stroke-width="1"/><path d="M290.3,222.7 A12.5,7.2 0 0 0 315.3,222.7" fill="none" stroke="#56615d" stroke-width="1"/><path d="M290.3,218.8 A12.5,7.2 0 0 0 315.3,218.8" fill="none" stroke="#56615d" stroke-width="1"/><path d="M290.3,215.0 A12.5,7.2 0 0 0 315.3,215.0" fill="none" stroke="#56615d" stroke-width="1"/><path d="M290.3,211.1 A12.5,7.2 0 0 0 315.3,211.1" fill="none" stroke="#56615d" stroke-width="1"/><path d="M290.3,207.3 A12.5,7.2 0 0 0 315.3,207.3" fill="none" stroke="#56615d" stroke-width="1"/><path d="M290.3,203.5 A12.5,7.2 0 0 0 315.3,203.5" fill="none" stroke="#56615d" stroke-width="1"/><path d="M290.3,199.6 A12.5,7.2 0 0 0 315.3,199.6" fill="none" stroke="#56615d" stroke-width="1"/><path d="M290.3,195.8 A12.5,7.2 0 0 0 315.3,195.8" fill="none" stroke="#56615d" stroke-width="1"/><path d="M288.1,194.1 A14.7,8.5 0 0 0 317.5,194.1 L324.9,189.3 A22.0,12.7 0 0 1 280.8,189.3 Z" fill="url(#cyl)"/><path d="M280.8,189.3 A22.0,12.7 0 0 0 324.9,189.3 L324.9,186.9 A22.0,12.7 0 0 1 280.8,186.9 Z" fill="#2a312f"/><ellipse cx="302.8" cy="186.9" rx="22.0" ry="12.7" fill="#1c2120"/><path d="M280.8,189.3 A22.0,12.7 0 0 0 324.9,189.3" fill="none" stroke="#2cc3b3" stroke-width="1"/><ellipse cx="497.2" cy="281.1" rx="40.6" ry="23.4" fill="#000" opacity=".35" filter="url(#blur)"/><path d="M466.3,278.1 A30.9,17.8 0 0 0 528.0,278.1 L528.0,274.5 A30.9,17.8 0 0 1 466.3,274.5 Z" fill="url(#cyl)"/><ellipse cx="497.2" cy="274.5" rx="30.9" ry="17.8" fill="#262c2a"/><path d="M466.3,278.1 A30.9,17.8 0 0 0 528.0,278.1" fill="none" stroke="#2cc3b3" stroke-width="1"/><path d="M470.7,274.5 A26.5,15.3 0 0 0 523.6,274.5 L510.4,249.3 A13.2,7.6 0 0 1 483.9,249.3 Z" fill="url(#cyl)"/><line x1="520.1" y1="282.1" x2="508.6" y2="253.1" stroke="#4b5552" stroke-width="1.4"/><line x1="510.4" y1="287.7" x2="503.8" y2="255.9" stroke="#4b5552" stroke-width="1.4"/><line x1="497.2" y1="289.8" x2="497.2" y2="256.9" stroke="#4b5552" stroke-width="1.4"/><line x1="483.9" y1="287.7" x2="490.6" y2="255.9" stroke="#4b5552" stroke-width="1.4"/><line x1="474.3" y1="282.1" x2="485.7" y2="253.1" stroke="#4b5552" stroke-width="1.4"/><path d="M484.7,249.3 A12.5,7.2 0 0 0 509.7,249.3 L509.7,194.1 A12.5,7.2 0 0 1 484.7,194.1 Z" fill="url(#cyl)"/><path d="M484.7,245.7 A12.5,7.2 0 0 0 509.7,245.7" fill="none" stroke="#56615d" stroke-width="1"/><path d="M484.7,241.9 A12.5,7.2 0 0 0 509.7,241.9" fill="none" stroke="#56615d" stroke-width="1"/><path d="M484.7,238.0 A12.5,7.2 0 0 0 509.7,238.0" fill="none" stroke="#56615d" stroke-width="1"/><path d="M484.7,234.2 A12.5,7.2 0 0 0 509.7,234.2" fill="none" stroke="#56615d" stroke-width="1"/><path d="M484.7,230.3 A12.5,7.2 0 0 0 509.7,230.3" fill="none" stroke="#56615d" stroke-width="1"/><path d="M484.7,226.5 A12.5,7.2 0 0 0 509.7,226.5" fill="none" stroke="#56615d" stroke-width="1"/><path d="M484.7,222.7 A12.5,7.2 0 0 0 509.7,222.7" fill="none" stroke="#56615d" stroke-width="1"/><path d="M484.7,218.8 A12.5,7.2 0 0 0 509.7,218.8" fill="none" stroke="#56615d" stroke-width="1"/><path d="M484.7,215.0 A12.5,7.2 0 0 0 509.7,215.0" fill="none" stroke="#56615d" stroke-width="1"/><path d="M484.7,211.1 A12.5,7.2 0 0 0 509.7,211.1" fill="none" stroke="#56615d" stroke-width="1"/><path d="M484.7,207.3 A12.5,7.2 0 0 0 509.7,207.3" fill="none" stroke="#56615d" stroke-width="1"/><path d="M484.7,203.5 A12.5,7.2 0 0 0 509.7,203.5" fill="none" stroke="#56615d" stroke-width="1"/><path d="M484.7,199.6 A12.5,7.2 0 0 0 509.7,199.6" fill="none" stroke="#56615d" stroke-width="1"/><path d="M484.7,195.8 A12.5,7.2 0 0 0 509.7,195.8" fill="none" stroke="#56615d" stroke-width="1"/><path d="M482.5,194.1 A14.7,8.5 0 0 0 511.9,194.1 L519.2,189.3 A22.0,12.7 0 0 1 475.1,189.3 Z" fill="url(#cyl)"/><path d="M475.1,189.3 A22.0,12.7 0 0 0 519.2,189.3 L519.2,186.9 A22.0,12.7 0 0 1 475.1,186.9 Z" fill="#2a312f"/><ellipse cx="497.2" cy="186.9" rx="22.0" ry="12.7" fill="#1c2120"/><path d="M475.1,189.3 A22.0,12.7 0 0 0 519.2,189.3" fill="none" stroke="#2cc3b3" stroke-width="1"/><ellipse cx="205.7" cy="337.2" rx="40.6" ry="23.4" fill="#000" opacity=".35" filter="url(#blur)"/><path d="M174.8,334.2 A30.9,17.8 0 0 0 236.5,334.2 L236.5,330.6 A30.9,17.8 0 0 1 174.8,330.6 Z" fill="url(#cyl)"/><ellipse cx="205.7" cy="330.6" rx="30.9" ry="17.8" fill="#262c2a"/><path d="M174.8,334.2 A30.9,17.8 0 0 0 236.5,334.2" fill="none" stroke="#2cc3b3" stroke-width="1"/><path d="M179.2,330.6 A26.5,15.3 0 0 0 232.1,330.6 L218.9,305.4 A13.2,7.6 0 0 1 192.4,305.4 Z" fill="url(#cyl)"/><line x1="228.6" y1="338.2" x2="217.1" y2="309.2" stroke="#4b5552" stroke-width="1.4"/><line x1="218.9" y1="343.8" x2="212.3" y2="312.0" stroke="#4b5552" stroke-width="1.4"/><line x1="205.7" y1="345.9" x2="205.7" y2="313.0" stroke="#4b5552" stroke-width="1.4"/><line x1="192.4" y1="343.8" x2="199.1" y2="312.0" stroke="#4b5552" stroke-width="1.4"/><line x1="182.8" y1="338.2" x2="194.2" y2="309.2" stroke="#4b5552" stroke-width="1.4"/><path d="M193.2,305.4 A12.5,7.2 0 0 0 218.2,305.4 L218.2,250.2 A12.5,7.2 0 0 1 193.2,250.2 Z" fill="url(#cyl)"/><path d="M193.2,301.8 A12.5,7.2 0 0 0 218.2,301.8" fill="none" stroke="#56615d" stroke-width="1"/><path d="M193.2,298.0 A12.5,7.2 0 0 0 218.2,298.0" fill="none" stroke="#56615d" stroke-width="1"/><path d="M193.2,294.1 A12.5,7.2 0 0 0 218.2,294.1" fill="none" stroke="#56615d" stroke-width="1"/><path d="M193.2,290.3 A12.5,7.2 0 0 0 218.2,290.3" fill="none" stroke="#56615d" stroke-width="1"/><path d="M193.2,286.4 A12.5,7.2 0 0 0 218.2,286.4" fill="none" stroke="#56615d" stroke-width="1"/><path d="M193.2,282.6 A12.5,7.2 0 0 0 218.2,282.6" fill="none" stroke="#56615d" stroke-width="1"/><path d="M193.2,278.8 A12.5,7.2 0 0 0 218.2,278.8" fill="none" stroke="#56615d" stroke-width="1"/><path d="M193.2,274.9 A12.5,7.2 0 0 0 218.2,274.9" fill="none" stroke="#56615d" stroke-width="1"/><path d="M193.2,271.1 A12.5,7.2 0 0 0 218.2,271.1" fill="none" stroke="#56615d" stroke-width="1"/><path d="M193.2,267.2 A12.5,7.2 0 0 0 218.2,267.2" fill="none" stroke="#56615d" stroke-width="1"/><path d="M193.2,263.4 A12.5,7.2 0 0 0 218.2,263.4" fill="none" stroke="#56615d" stroke-width="1"/><path d="M193.2,259.6 A12.5,7.2 0 0 0 218.2,259.6" fill="none" stroke="#56615d" stroke-width="1"/><path d="M193.2,255.7 A12.5,7.2 0 0 0 218.2,255.7" fill="none" stroke="#56615d" stroke-width="1"/><path d="M193.2,251.9 A12.5,7.2 0 0 0 218.2,251.9" fill="none" stroke="#56615d" stroke-width="1"/><path d="M191.0,250.2 A14.7,8.5 0 0 0 220.4,250.2 L227.7,245.4 A22.0,12.7 0 0 1 183.6,245.4 Z" fill="url(#cyl)"/><path d="M183.6,245.4 A22.0,12.7 0 0 0 227.7,245.4 L227.7,243.0 A22.0,12.7 0 0 1 183.6,243.0 Z" fill="#2a312f"/><ellipse cx="205.7" cy="243.0" rx="22.0" ry="12.7" fill="#1c2120"/><path d="M183.6,245.4 A22.0,12.7 0 0 0 227.7,245.4" fill="none" stroke="#2cc3b3" stroke-width="1"/><ellipse cx="400.0" cy="337.2" rx="40.6" ry="23.4" fill="#000" opacity=".35" filter="url(#blur)"/><path d="M369.1,334.2 A30.9,17.8 0 0 0 430.9,334.2 L430.9,330.6 A30.9,17.8 0 0 1 369.1,330.6 Z" fill="url(#cyl)"/><ellipse cx="400.0" cy="330.6" rx="30.9" ry="17.8" fill="#262c2a"/><path d="M369.1,334.2 A30.9,17.8 0 0 0 430.9,334.2" fill="none" stroke="#2cc3b3" stroke-width="1"/><path d="M373.5,330.6 A26.5,15.3 0 0 0 426.5,330.6 L413.2,305.4 A13.2,7.6 0 0 1 386.8,305.4 Z" fill="url(#cyl)"/><line x1="422.9" y1="338.2" x2="411.5" y2="309.2" stroke="#4b5552" stroke-width="1.4"/><line x1="413.2" y1="343.8" x2="406.6" y2="312.0" stroke="#4b5552" stroke-width="1.4"/><line x1="400.0" y1="345.9" x2="400.0" y2="313.0" stroke="#4b5552" stroke-width="1.4"/><line x1="386.8" y1="343.8" x2="393.4" y2="312.0" stroke="#4b5552" stroke-width="1.4"/><line x1="377.1" y1="338.2" x2="388.5" y2="309.2" stroke="#4b5552" stroke-width="1.4"/><path d="M387.5,305.4 A12.5,7.2 0 0 0 412.5,305.4 L412.5,250.2 A12.5,7.2 0 0 1 387.5,250.2 Z" fill="url(#cyl)"/><path d="M387.5,301.8 A12.5,7.2 0 0 0 412.5,301.8" fill="none" stroke="#56615d" stroke-width="1"/><path d="M387.5,298.0 A12.5,7.2 0 0 0 412.5,298.0" fill="none" stroke="#56615d" stroke-width="1"/><path d="M387.5,294.1 A12.5,7.2 0 0 0 412.5,294.1" fill="none" stroke="#56615d" stroke-width="1"/><path d="M387.5,290.3 A12.5,7.2 0 0 0 412.5,290.3" fill="none" stroke="#56615d" stroke-width="1"/><path d="M387.5,286.4 A12.5,7.2 0 0 0 412.5,286.4" fill="none" stroke="#56615d" stroke-width="1"/><path d="M387.5,282.6 A12.5,7.2 0 0 0 412.5,282.6" fill="none" stroke="#56615d" stroke-width="1"/><path d="M387.5,278.8 A12.5,7.2 0 0 0 412.5,278.8" fill="none" stroke="#56615d" stroke-width="1"/><path d="M387.5,274.9 A12.5,7.2 0 0 0 412.5,274.9" fill="none" stroke="#56615d" stroke-width="1"/><path d="M387.5,271.1 A12.5,7.2 0 0 0 412.5,271.1" fill="none" stroke="#56615d" stroke-width="1"/><path d="M387.5,267.2 A12.5,7.2 0 0 0 412.5,267.2" fill="none" stroke="#56615d" stroke-width="1"/><path d="M387.5,263.4 A12.5,7.2 0 0 0 412.5,263.4" fill="none" stroke="#56615d" stroke-width="1"/><path d="M387.5,259.6 A12.5,7.2 0 0 0 412.5,259.6" fill="none" stroke="#56615d" stroke-width="1"/><path d="M387.5,255.7 A12.5,7.2 0 0 0 412.5,255.7" fill="none" stroke="#56615d" stroke-width="1"/><path d="M387.5,251.9 A12.5,7.2 0 0 0 412.5,251.9" fill="none" stroke="#56615d" stroke-width="1"/><path d="M385.3,250.2 A14.7,8.5 0 0 0 414.7,250.2 L422.0,245.4 A22.0,12.7 0 0 1 378.0,245.4 Z" fill="url(#cyl)"/><path d="M378.0,245.4 A22.0,12.7 0 0 0 422.0,245.4 L422.0,243.0 A22.0,12.7 0 0 1 378.0,243.0 Z" fill="#2a312f"/><ellipse cx="400.0" cy="243.0" rx="22.0" ry="12.7" fill="#1c2120"/><path d="M378.0,245.4 A22.0,12.7 0 0 0 422.0,245.4" fill="none" stroke="#2cc3b3" stroke-width="1"/><ellipse cx="594.3" cy="337.2" rx="40.6" ry="23.4" fill="#000" opacity=".35" filter="url(#blur)"/><path d="M563.5,334.2 A30.9,17.8 0 0 0 625.2,334.2 L625.2,330.6 A30.9,17.8 0 0 1 563.5,330.6 Z" fill="url(#cyl)"/><ellipse cx="594.3" cy="330.6" rx="30.9" ry="17.8" fill="#262c2a"/><path d="M563.5,334.2 A30.9,17.8 0 0 0 625.2,334.2" fill="none" stroke="#2cc3b3" stroke-width="1"/><path d="M567.9,330.6 A26.5,15.3 0 0 0 620.8,330.6 L607.6,305.4 A13.2,7.6 0 0 1 581.1,305.4 Z" fill="url(#cyl)"/><line x1="617.2" y1="338.2" x2="605.8" y2="309.2" stroke="#4b5552" stroke-width="1.4"/><line x1="607.6" y1="343.8" x2="600.9" y2="312.0" stroke="#4b5552" stroke-width="1.4"/><line x1="594.3" y1="345.9" x2="594.3" y2="313.0" stroke="#4b5552" stroke-width="1.4"/><line x1="581.1" y1="343.8" x2="587.7" y2="312.0" stroke="#4b5552" stroke-width="1.4"/><line x1="571.4" y1="338.2" x2="582.9" y2="309.2" stroke="#4b5552" stroke-width="1.4"/><path d="M581.8,305.4 A12.5,7.2 0 0 0 606.8,305.4 L606.8,250.2 A12.5,7.2 0 0 1 581.8,250.2 Z" fill="url(#cyl)"/><path d="M581.8,301.8 A12.5,7.2 0 0 0 606.8,301.8" fill="none" stroke="#56615d" stroke-width="1"/><path d="M581.8,298.0 A12.5,7.2 0 0 0 606.8,298.0" fill="none" stroke="#56615d" stroke-width="1"/><path d="M581.8,294.1 A12.5,7.2 0 0 0 606.8,294.1" fill="none" stroke="#56615d" stroke-width="1"/><path d="M581.8,290.3 A12.5,7.2 0 0 0 606.8,290.3" fill="none" stroke="#56615d" stroke-width="1"/><path d="M581.8,286.4 A12.5,7.2 0 0 0 606.8,286.4" fill="none" stroke="#56615d" stroke-width="1"/><path d="M581.8,282.6 A12.5,7.2 0 0 0 606.8,282.6" fill="none" stroke="#56615d" stroke-width="1"/><path d="M581.8,278.8 A12.5,7.2 0 0 0 606.8,278.8" fill="none" stroke="#56615d" stroke-width="1"/><path d="M581.8,274.9 A12.5,7.2 0 0 0 606.8,274.9" fill="none" stroke="#56615d" stroke-width="1"/><path d="M581.8,271.1 A12.5,7.2 0 0 0 606.8,271.1" fill="none" stroke="#56615d" stroke-width="1"/><path d="M581.8,267.2 A12.5,7.2 0 0 0 606.8,267.2" fill="none" stroke="#56615d" stroke-width="1"/><path d="M581.8,263.4 A12.5,7.2 0 0 0 606.8,263.4" fill="none" stroke="#56615d" stroke-width="1"/><path d="M581.8,259.6 A12.5,7.2 0 0 0 606.8,259.6" fill="none" stroke="#56615d" stroke-width="1"/><path d="M581.8,255.7 A12.5,7.2 0 0 0 606.8,255.7" fill="none" stroke="#56615d" stroke-width="1"/><path d="M581.8,251.9 A12.5,7.2 0 0 0 606.8,251.9" fill="none" stroke="#56615d" stroke-width="1"/><path d="M579.6,250.2 A14.7,8.5 0 0 0 609.0,250.2 L616.4,245.4 A22.0,12.7 0 0 1 572.3,245.4 Z" fill="url(#cyl)"/><path d="M572.3,245.4 A22.0,12.7 0 0 0 616.4,245.4 L616.4,243.0 A22.0,12.7 0 0 1 572.3,243.0 Z" fill="#2a312f"/><ellipse cx="594.3" cy="243.0" rx="22.0" ry="12.7" fill="#1c2120"/><path d="M572.3,245.4 A22.0,12.7 0 0 0 616.4,245.4" fill="none" stroke="#2cc3b3" stroke-width="1"/><ellipse cx="302.8" cy="393.3" rx="40.6" ry="23.4" fill="#000" opacity=".35" filter="url(#blur)"/><path d="M272.0,390.3 A30.9,17.8 0 0 0 333.7,390.3 L333.7,386.7 A30.9,17.8 0 0 1 272.0,386.7 Z" fill="url(#cyl)"/><ellipse cx="302.8" cy="386.7" rx="30.9" ry="17.8" fill="#262c2a"/><path d="M272.0,390.3 A30.9,17.8 0 0 0 333.7,390.3" fill="none" stroke="#2cc3b3" stroke-width="1"/><path d="M276.4,386.7 A26.5,15.3 0 0 0 329.3,386.7 L316.1,361.5 A13.2,7.6 0 0 1 289.6,361.5 Z" fill="url(#cyl)"/><line x1="325.7" y1="394.3" x2="314.3" y2="365.3" stroke="#4b5552" stroke-width="1.4"/><line x1="316.1" y1="399.9" x2="309.4" y2="368.1" stroke="#4b5552" stroke-width="1.4"/><line x1="302.8" y1="402.0" x2="302.8" y2="369.1" stroke="#4b5552" stroke-width="1.4"/><line x1="289.6" y1="399.9" x2="296.2" y2="368.1" stroke="#4b5552" stroke-width="1.4"/><line x1="279.9" y1="394.3" x2="291.4" y2="365.3" stroke="#4b5552" stroke-width="1.4"/><path d="M290.3,361.5 A12.5,7.2 0 0 0 315.3,361.5 L315.3,306.3 A12.5,7.2 0 0 1 290.3,306.3 Z" fill="url(#cyl)"/><path d="M290.3,357.9 A12.5,7.2 0 0 0 315.3,357.9" fill="none" stroke="#56615d" stroke-width="1"/><path d="M290.3,354.1 A12.5,7.2 0 0 0 315.3,354.1" fill="none" stroke="#56615d" stroke-width="1"/><path d="M290.3,350.2 A12.5,7.2 0 0 0 315.3,350.2" fill="none" stroke="#56615d" stroke-width="1"/><path d="M290.3,346.4 A12.5,7.2 0 0 0 315.3,346.4" fill="none" stroke="#56615d" stroke-width="1"/><path d="M290.3,342.5 A12.5,7.2 0 0 0 315.3,342.5" fill="none" stroke="#56615d" stroke-width="1"/><path d="M290.3,338.7 A12.5,7.2 0 0 0 315.3,338.7" fill="none" stroke="#56615d" stroke-width="1"/><path d="M290.3,334.9 A12.5,7.2 0 0 0 315.3,334.9" fill="none" stroke="#56615d" stroke-width="1"/><path d="M290.3,331.0 A12.5,7.2 0 0 0 315.3,331.0" fill="none" stroke="#56615d" stroke-width="1"/><path d="M290.3,327.2 A12.5,7.2 0 0 0 315.3,327.2" fill="none" stroke="#56615d" stroke-width="1"/><path d="M290.3,323.3 A12.5,7.2 0 0 0 315.3,323.3" fill="none" stroke="#56615d" stroke-width="1"/><path d="M290.3,319.5 A12.5,7.2 0 0 0 315.3,319.5" fill="none" stroke="#56615d" stroke-width="1"/><path d="M290.3,315.7 A12.5,7.2 0 0 0 315.3,315.7" fill="none" stroke="#56615d" stroke-width="1"/><path d="M290.3,311.8 A12.5,7.2 0 0 0 315.3,311.8" fill="none" stroke="#56615d" stroke-width="1"/><path d="M290.3,308.0 A12.5,7.2 0 0 0 315.3,308.0" fill="none" stroke="#56615d" stroke-width="1"/><path d="M288.1,306.3 A14.7,8.5 0 0 0 317.5,306.3 L324.9,301.5 A22.0,12.7 0 0 1 280.8,301.5 Z" fill="url(#cyl)"/><path d="M280.8,301.5 A22.0,12.7 0 0 0 324.9,301.5 L324.9,299.1 A22.0,12.7 0 0 1 280.8,299.1 Z" fill="#2a312f"/><ellipse cx="302.8" cy="299.1" rx="22.0" ry="12.7" fill="#1c2120"/><path d="M280.8,301.5 A22.0,12.7 0 0 0 324.9,301.5" fill="none" stroke="#2cc3b3" stroke-width="1"/><ellipse cx="497.2" cy="393.3" rx="40.6" ry="23.4" fill="#000" opacity=".35" filter="url(#blur)"/><path d="M466.3,390.3 A30.9,17.8 0 0 0 528.0,390.3 L528.0,386.7 A30.9,17.8 0 0 1 466.3,386.7 Z" fill="url(#cyl)"/><ellipse cx="497.2" cy="386.7" rx="30.9" ry="17.8" fill="#262c2a"/><path d="M466.3,390.3 A30.9,17.8 0 0 0 528.0,390.3" fill="none" stroke="#2cc3b3" stroke-width="1"/><path d="M470.7,386.7 A26.5,15.3 0 0 0 523.6,386.7 L510.4,361.5 A13.2,7.6 0 0 1 483.9,361.5 Z" fill="url(#cyl)"/><line x1="520.1" y1="394.3" x2="508.6" y2="365.3" stroke="#4b5552" stroke-width="1.4"/><line x1="510.4" y1="399.9" x2="503.8" y2="368.1" stroke="#4b5552" stroke-width="1.4"/><line x1="497.2" y1="402.0" x2="497.2" y2="369.1" stroke="#4b5552" stroke-width="1.4"/><line x1="483.9" y1="399.9" x2="490.6" y2="368.1" stroke="#4b5552" stroke-width="1.4"/><line x1="474.3" y1="394.3" x2="485.7" y2="365.3" stroke="#4b5552" stroke-width="1.4"/><path d="M484.7,361.5 A12.5,7.2 0 0 0 509.7,361.5 L509.7,306.3 A12.5,7.2 0 0 1 484.7,306.3 Z" fill="url(#cyl)"/><path d="M484.7,357.9 A12.5,7.2 0 0 0 509.7,357.9" fill="none" stroke="#56615d" stroke-width="1"/><path d="M484.7,354.1 A12.5,7.2 0 0 0 509.7,354.1" fill="none" stroke="#56615d" stroke-width="1"/><path d="M484.7,350.2 A12.5,7.2 0 0 0 509.7,350.2" fill="none" stroke="#56615d" stroke-width="1"/><path d="M484.7,346.4 A12.5,7.2 0 0 0 509.7,346.4" fill="none" stroke="#56615d" stroke-width="1"/><path d="M484.7,342.5 A12.5,7.2 0 0 0 509.7,342.5" fill="none" stroke="#56615d" stroke-width="1"/><path d="M484.7,338.7 A12.5,7.2 0 0 0 509.7,338.7" fill="none" stroke="#56615d" stroke-width="1"/><path d="M484.7,334.9 A12.5,7.2 0 0 0 509.7,334.9" fill="none" stroke="#56615d" stroke-width="1"/><path d="M484.7,331.0 A12.5,7.2 0 0 0 509.7,331.0" fill="none" stroke="#56615d" stroke-width="1"/><path d="M484.7,327.2 A12.5,7.2 0 0 0 509.7,327.2" fill="none" stroke="#56615d" stroke-width="1"/><path d="M484.7,323.3 A12.5,7.2 0 0 0 509.7,323.3" fill="none" stroke="#56615d" stroke-width="1"/><path d="M484.7,319.5 A12.5,7.2 0 0 0 509.7,319.5" fill="none" stroke="#56615d" stroke-width="1"/><path d="M484.7,315.7 A12.5,7.2 0 0 0 509.7,315.7" fill="none" stroke="#56615d" stroke-width="1"/><path d="M484.7,311.8 A12.5,7.2 0 0 0 509.7,311.8" fill="none" stroke="#56615d" stroke-width="1"/><path d="M484.7,308.0 A12.5,7.2 0 0 0 509.7,308.0" fill="none" stroke="#56615d" stroke-width="1"/><path d="M482.5,306.3 A14.7,8.5 0 0 0 511.9,306.3 L519.2,301.5 A22.0,12.7 0 0 1 475.1,301.5 Z" fill="url(#cyl)"/><path d="M475.1,301.5 A22.0,12.7 0 0 0 519.2,301.5 L519.2,299.1 A22.0,12.7 0 0 1 475.1,299.1 Z" fill="#2a312f"/><ellipse cx="497.2" cy="299.1" rx="22.0" ry="12.7" fill="#1c2120"/><path d="M475.1,301.5 A22.0,12.7 0 0 0 519.2,301.5" fill="none" stroke="#2cc3b3" stroke-width="1"/><ellipse cx="400.0" cy="449.4" rx="40.6" ry="23.4" fill="#000" opacity=".35" filter="url(#blur)"/><path d="M369.1,446.4 A30.9,17.8 0 0 0 430.9,446.4 L430.9,442.8 A30.9,17.8 0 0 1 369.1,442.8 Z" fill="url(#cyl)"/><ellipse cx="400.0" cy="442.8" rx="30.9" ry="17.8" fill="#262c2a"/><path d="M369.1,446.4 A30.9,17.8 0 0 0 430.9,446.4" fill="none" stroke="#2cc3b3" stroke-width="1"/><path d="M373.5,442.8 A26.5,15.3 0 0 0 426.5,442.8 L413.2,417.6 A13.2,7.6 0 0 1 386.8,417.6 Z" fill="url(#cyl)"/><line x1="422.9" y1="450.4" x2="411.5" y2="421.4" stroke="#4b5552" stroke-width="1.4"/><line x1="413.2" y1="456.0" x2="406.6" y2="424.2" stroke="#4b5552" stroke-width="1.4"/><line x1="400.0" y1="458.1" x2="400.0" y2="425.2" stroke="#4b5552" stroke-width="1.4"/><line x1="386.8" y1="456.0" x2="393.4" y2="424.2" stroke="#4b5552" stroke-width="1.4"/><line x1="377.1" y1="450.4" x2="388.5" y2="421.4" stroke="#4b5552" stroke-width="1.4"/><path d="M387.5,417.6 A12.5,7.2 0 0 0 412.5,417.6 L412.5,362.4 A12.5,7.2 0 0 1 387.5,362.4 Z" fill="url(#cyl)"/><path d="M387.5,414.0 A12.5,7.2 0 0 0 412.5,414.0" fill="none" stroke="#56615d" stroke-width="1"/><path d="M387.5,410.2 A12.5,7.2 0 0 0 412.5,410.2" fill="none" stroke="#56615d" stroke-width="1"/><path d="M387.5,406.3 A12.5,7.2 0 0 0 412.5,406.3" fill="none" stroke="#56615d" stroke-width="1"/><path d="M387.5,402.5 A12.5,7.2 0 0 0 412.5,402.5" fill="none" stroke="#56615d" stroke-width="1"/><path d="M387.5,398.6 A12.5,7.2 0 0 0 412.5,398.6" fill="none" stroke="#56615d" stroke-width="1"/><path d="M387.5,394.8 A12.5,7.2 0 0 0 412.5,394.8" fill="none" stroke="#56615d" stroke-width="1"/><path d="M387.5,391.0 A12.5,7.2 0 0 0 412.5,391.0" fill="none" stroke="#56615d" stroke-width="1"/><path d="M387.5,387.1 A12.5,7.2 0 0 0 412.5,387.1" fill="none" stroke="#56615d" stroke-width="1"/><path d="M387.5,383.3 A12.5,7.2 0 0 0 412.5,383.3" fill="none" stroke="#56615d" stroke-width="1"/><path d="M387.5,379.4 A12.5,7.2 0 0 0 412.5,379.4" fill="none" stroke="#56615d" stroke-width="1"/><path d="M387.5,375.6 A12.5,7.2 0 0 0 412.5,375.6" fill="none" stroke="#56615d" stroke-width="1"/><path d="M387.5,371.8 A12.5,7.2 0 0 0 412.5,371.8" fill="none" stroke="#56615d" stroke-width="1"/><path d="M387.5,367.9 A12.5,7.2 0 0 0 412.5,367.9" fill="none" stroke="#56615d" stroke-width="1"/><path d="M387.5,364.1 A12.5,7.2 0 0 0 412.5,364.1" fill="none" stroke="#56615d" stroke-width="1"/><path d="M385.3,362.4 A14.7,8.5 0 0 0 414.7,362.4 L422.0,357.6 A22.0,12.7 0 0 1 378.0,357.6 Z" fill="url(#cyl)"/><path d="M378.0,357.6 A22.0,12.7 0 0 0 422.0,357.6 L422.0,355.2 A22.0,12.7 0 0 1 378.0,355.2 Z" fill="#2a312f"/><ellipse cx="400.0" cy="355.2" rx="22.0" ry="12.7" fill="#1c2120"/><path d="M378.0,357.6 A22.0,12.7 0 0 0 422.0,357.6" fill="none" stroke="#2cc3b3" stroke-width="1"/><polygon points="184.9,245.4 400.0,369.6 400.0,363.6 184.9,239.4" fill="#0c1210" /><polygon points="615.1,245.4 400.0,369.6 400.0,363.6 615.1,239.4" fill="#0c1210" /><polygon points="400.0,115.2 615.1,239.4 400.0,363.6 184.9,239.4" fill="#0c1210" /><polygon points="291.9,178.8 400.0,241.2 400.0,234.0 291.9,171.6" fill="#aebbb5" /><polygon points="508.1,178.8 400.0,241.2 400.0,234.0 508.1,171.6" fill="#8f9d97" /><polygon points="400.0,109.2 508.1,171.6 400.0,234.0 291.9,171.6" fill="url(#tileTop)" /><polyline points="291.9,171.6 400.0,109.2 508.1,171.6" fill="none" stroke="#fff" stroke-opacity=".8" stroke-width="1.2"/><polygon points="180.7,243.0 288.8,305.4 288.8,298.2 180.7,235.8" fill="#aebbb5" /><polygon points="396.9,243.0 288.8,305.4 288.8,298.2 396.9,235.8" fill="#8f9d97" /><polygon points="288.8,173.4 396.9,235.8 288.8,298.2 180.7,235.8" fill="url(#tileTop)" /><polyline points="180.7,235.8 288.8,173.4 396.9,235.8" fill="none" stroke="#fff" stroke-opacity=".8" stroke-width="1.2"/><polygon points="403.1,243.0 511.2,305.4 511.2,298.2 403.1,235.8" fill="#aebbb5" /><polygon points="619.3,243.0 511.2,305.4 511.2,298.2 619.3,235.8" fill="#8f9d97" /><polygon points="511.2,173.4 619.3,235.8 511.2,298.2 403.1,235.8" fill="url(#tileTop)" /><polyline points="403.1,235.8 511.2,173.4 619.3,235.8" fill="none" stroke="#fff" stroke-opacity=".8" stroke-width="1.2"/><polygon points="291.9,307.2 400.0,369.6 400.0,362.4 291.9,300.0" fill="#aebbb5" /><polygon points="508.1,307.2 400.0,369.6 400.0,362.4 508.1,300.0" fill="#8f9d97" /><polygon points="400.0,237.6 508.1,300.0 400.0,362.4 291.9,300.0" fill="url(#tileTop)" /><polyline points="291.9,300.0 400.0,237.6 508.1,300.0" fill="none" stroke="#fff" stroke-opacity=".8" stroke-width="1.2"/><path d="M410.4,205.8 C420.4,165.8 353.4,145.8 365.4,121.8" fill="none" stroke="#e9f7f3" stroke-opacity=".8" stroke-width="1.6"/><ellipse cx="365.4" cy="85.8" rx="27" ry="33" fill="#2cc3b3"/><ellipse cx="356.4" cy="73.8" rx="7" ry="11" fill="#fff" opacity=".45"/><polygon points="360.4,121.8 365.4,116.8 370.4,121.8" fill="#2cc3b3"/><path d="M420.8,235.8 C430.8,195.8 416.8,155.8 428.8,131.8" fill="none" stroke="#e9f7f3" stroke-opacity=".8" stroke-width="1.6"/><ellipse cx="428.8" cy="95.8" rx="27" ry="33" fill="#3ddc84"/><ellipse cx="419.8" cy="83.8" rx="7" ry="11" fill="#fff" opacity=".45"/><polygon points="423.8,131.8 428.8,126.8 433.8,131.8" fill="#3ddc84"/><path d="M405.2,262.8 C415.2,222.8 448.2,212.8 460.2,188.8" fill="none" stroke="#e9f7f3" stroke-opacity=".8" stroke-width="1.6"/><ellipse cx="460.2" cy="152.8" rx="27" ry="33" fill="#ffb35c"/><ellipse cx="451.2" cy="140.8" rx="7" ry="11" fill="#fff" opacity=".45"/><polygon points="455.2,188.8 460.2,183.8 465.2,188.8" fill="#ffb35c"/></svg>